<svg width="72" height="21" viewBox="0 0 72 21" fill="none" xmlns="http://www.w3.org/2000/svg">
<path d="M0.51 20.22L7.45 0.479999H9.59L2.63 20.22H0.51ZM11.3825 17V6.4H13.6625V7.9H13.7425C13.8625 7.68667 14.0358 7.44667 14.2625 7.18C14.5025 6.91333 14.8158 6.68667 15.2025 6.5C15.5892 6.3 16.0758 6.2 16.6625 6.2C17.4492 6.2 18.1025 6.38667 18.6225 6.76C19.1425 7.13333 19.5292 7.62667 19.7825 8.24H19.8225C20.1025 7.70667 20.5092 7.23333 21.0425 6.82C21.5758 6.40667 22.2825 6.2 23.1625 6.2C23.9092 6.2 24.5425 6.38 25.0625 6.74C25.5825 7.08667 25.9692 7.56 26.2225 8.16C26.4892 8.74667 26.6225 9.41333 26.6225 10.16V17H24.3425V10.48C24.3425 9.78667 24.1758 9.22 23.8425 8.78C23.5092 8.34 23.0158 8.12 22.3625 8.12C21.8292 8.12 21.3958 8.26667 21.0625 8.56C20.7425 8.85333 20.5092 9.22 20.3625 9.66C20.2158 10.0867 20.1425 10.52 20.1425 10.96V17H17.8625V10.48C17.8625 9.78667 17.6958 9.22 17.3625 8.78C17.0292 8.34 16.5358 8.12 15.8825 8.12C15.3492 8.12 14.9158 8.26667 14.5825 8.56C14.2625 8.85333 14.0292 9.22 13.8825 9.66C13.7358 10.0867 13.6625 10.52 13.6625 10.96V17H11.3825ZM34.3745 17.2C33.2145 17.2 32.2345 16.94 31.4345 16.42C30.6479 15.9 30.0479 15.22 29.6345 14.38C29.2345 13.54 29.0345 12.6467 29.0345 11.7C29.0345 10.7533 29.2345 9.86 29.6345 9.02C30.0479 8.18 30.6479 7.5 31.4345 6.98C32.2345 6.46 33.2145 6.2 34.3745 6.2C35.5212 6.2 36.4879 6.46 37.2745 6.98C38.0745 7.5 38.6745 8.18 39.0745 9.02C39.4879 9.86 39.6945 10.7533 39.6945 11.7C39.6945 12.6467 39.4879 13.54 39.0745 14.38C38.6745 15.22 38.0745 15.9 37.2745 16.42C36.4879 16.94 35.5212 17.2 34.3745 17.2ZM34.3745 15.26C35.0279 15.26 35.5745 15.0933 36.0145 14.76C36.4679 14.4267 36.8079 13.9867 37.0345 13.44C37.2745 12.8933 37.3945 12.3133 37.3945 11.7C37.3945 11.0733 37.2745 10.4933 37.0345 9.96C36.8079 9.41333 36.4679 8.97333 36.0145 8.64C35.5745 8.30667 35.0279 8.14 34.3745 8.14C33.7212 8.14 33.1679 8.30667 32.7145 8.64C32.2612 8.97333 31.9212 9.41333 31.6945 9.96C31.4679 10.4933 31.3545 11.0733 31.3545 11.7C31.3545 12.3133 31.4679 12.8933 31.6945 13.44C31.9212 13.9867 32.2612 14.4267 32.7145 14.76C33.1679 15.0933 33.7212 15.26 34.3745 15.26ZM42.1247 17V6.4H44.4047V7.94H44.5247C44.618 7.75333 44.778 7.52667 45.0047 7.26C45.2314 6.98 45.5447 6.73333 45.9447 6.52C46.358 6.30667 46.878 6.2 47.5047 6.2C48.2914 6.2 48.9514 6.38 49.4847 6.74C50.018 7.1 50.418 7.58 50.6847 8.18C50.9647 8.78 51.1047 9.44 51.1047 10.16V17H48.8247V10.4C48.8247 9.76 48.6447 9.22 48.2847 8.78C47.938 8.34 47.418 8.12 46.7247 8.12C46.178 8.12 45.7314 8.26 45.3847 8.54C45.0514 8.80667 44.8047 9.16 44.6447 9.6C44.4847 10.0267 44.4047 10.4867 44.4047 10.98V17H42.1247ZM58.0733 17.2C57.2333 17.2 56.5599 17.0467 56.0533 16.74C55.5466 16.4333 55.1799 16.0267 54.9533 15.52C54.7399 15 54.6333 14.44 54.6333 13.84V8.24H52.7733V6.4H54.6333V3.76H56.9133V6.4H59.3933V8.24H56.9133V13.8C56.9133 14.8 57.4666 15.3 58.5733 15.3C58.8533 15.3 59.1133 15.28 59.3533 15.24C59.5933 15.2 59.7133 15.18 59.7133 15.18V17.04C59.7133 17.04 59.5466 17.0667 59.2133 17.12C58.8933 17.1733 58.5133 17.2 58.0733 17.2ZM62.2466 17V1.8H64.5266V7.94H64.6466C64.7399 7.75333 64.8999 7.52667 65.1266 7.26C65.3532 6.98 65.6666 6.73333 66.0666 6.52C66.4799 6.30667 66.9999 6.2 67.6266 6.2C68.4132 6.2 69.0732 6.38 69.6066 6.74C70.1399 7.1 70.5399 7.58 70.8066 8.18C71.0866 8.78 71.2266 9.44 71.2266 10.16V17H68.9466V10.4C68.9466 9.76 68.7666 9.22 68.4066 8.78C68.0599 8.34 67.5399 8.12 66.8466 8.12C66.2999 8.12 65.8532 8.26 65.5066 8.54C65.1732 8.80667 64.9266 9.16 64.7666 9.6C64.6066 10.0267 64.5266 10.4867 64.5266 10.98V17H62.2466Z" fill="#4C4C4D"/>
</svg>
